Coordinates
version=1
nRows=8
nColumns=34
inDegrees=yes

Units are S.I. units (second, meters, Newtons, ...)
If the header above contains a line with 'inDegrees', this indicates whether rotational values are in degrees (yes) or radians (no).

endheader
time	pelvis_tilt	pelvis_list	pelvis_rotation	pelvis_tx	pelvis_ty	pelvis_tz	hip_flexion_r	hip_adduction_r	hip_rotation_r	knee_angle_r	ankle_angle_r	subtalar_angle_r	mtp_angle_r	hip_flexion_l	hip_adduction_l	hip_rotation_l	knee_angle_l	ankle_angle_l	subtalar_angle_l	mtp_angle_l	lumbar_extension	lumbar_bending	lumbar_rotation	arm_flex_r	arm_add_r	arm_rot_r	elbow_flex_r	pro_sup_r	arm_flex_l	arm_add_l	arm_rot_l	elbow_flex_l	pro_sup_l
     12.05000000	      0.86566427	     -3.51617372	      5.18972035	      0.38964041	      0.95871402	      0.18681114	     10.80768544	      1.50284478	      0.41507084	     13.72091186	      8.00838690	    -13.69144561	      0.00000000	     -9.29953919	     -1.45637139	     -9.48993698	      0.00000000	     16.05080986	     13.14214962	      0.00000000	     -5.24631187	      5.38786530	     -5.71127090	      4.22855677	     -5.98194595	      5.86722494	     13.37235224	     65.19414767	      7.08918971	     -9.00873223	     -1.89768888	     30.58132239	     62.20928876
     12.06666670	      0.90526914	     -3.77297401	      5.38035277	      0.40010576	      0.95829415	      0.18682643	     11.19246785	      1.96440981	      0.06528872	      9.80565031	      5.12460649	    -14.40887492	      0.00000000	     -9.82551123	     -1.96110160	     -9.02414291	      0.00000000	     16.51886729	     13.33831184	      0.00000000	     -5.25103067	      5.67223669	     -6.19390513	      4.21011045	     -5.77554627	      5.81147023	     12.83583167	     65.15387890	      7.42213987	     -9.70791481	     -0.77144891	     32.20968753	     61.72133201
     12.08333330	      0.62145340	     -3.89588165	      5.50612055	      0.41059481	      0.95852614	      0.18733352	     11.98497533	      2.19359512	     -0.64079362	      6.33071151	      2.87803064	    -13.79006245	      0.00000000	     -9.93321594	     -2.30748882	     -8.69974389	      0.00000000	     16.74034304	     13.46102445	      0.00000000	     -4.92049795	      5.78817428	     -6.30255916	      3.94458826	     -5.61572906	      5.80721217	     12.54078279	     65.14053476	      8.12360044	    -10.05378430	     -0.45115534	     33.05518523	     61.57660161
     12.10000000	      0.68184981	     -3.82332755	      5.79575707	      0.42166132	      0.95874966	      0.18771779	     12.21363007	      2.25887122	     -0.61423115	      2.84183162	      0.12709386	    -14.18625756	      0.00000000	    -10.40060879	     -2.52201370	     -7.97663036	      0.00000000	     16.98426351	     13.41258303	      0.00000000	     -5.24601499	      5.74510116	     -7.03920183	      4.21635178	     -5.20855807	      5.62034647	     12.13162131	     65.01956223	      8.21651888	    -11.12259017	      1.39454880	     35.18647961	     61.07364239
     12.11666670	      0.33502172	     -3.74255910	      5.86236117	      0.43409480	      0.95735103	      0.18804321	     13.00130415	      2.25278736	     -0.91974412	      0.00000000	     -1.69085398	    -13.26339612	      0.00000000	    -10.54911611	     -2.62578805	     -7.64107206	      0.00000000	     16.96808526	     13.61080839	      0.00000000	     -4.93146881	      5.60372760	     -7.06986859	      3.99025814	     -4.96669055	      5.62526880	     11.94455922	     65.00805079	      8.79255594	    -11.41734292	      1.64694016	     35.82223887	     60.94240556
     12.13333330	     -0.38522251	     -3.58884437	      5.64531322	      0.44663567	      0.95512422	      0.18867701	     15.32645520	      2.10677303	     -1.85502381	      0.00000000	     -1.86657286	    -11.68877482	      0.00000000	    -10.42016195	     -2.51839217	     -7.26813266	      0.00000000	     16.80324401	     13.37383077	      0.00000000	     -4.29127849	      5.43516467	     -7.31672939	      4.06796331	     -4.62482230	      5.44420297	     11.64140606	     64.87014864	      8.71342385	    -12.37799546	      3.59100503	     37.82876975	     60.26918489
     12.15000000	     -0.55234768	     -3.58103760	      5.55693160	      0.45988873	      0.95386338	      0.18890810	     16.62437234	      2.12754702	     -2.63281912	      0.00000000	     -2.56870423	    -11.32996195	      0.00000000	    -11.03767043	     -2.58054546	     -7.02194153	      0.00000000	     16.46954482	     13.56950357	      0.00000000	     -4.27891175	      5.59124293	     -7.26614849	      4.06180539	     -4.51757188	      5.44406885	     11.51782291	     64.85681928	      9.20014498	    -12.46574427	      3.79015336	     38.33992905	     60.14254692
     12.16666670	     -0.81766418	     -3.79532419	      5.52547096	      0.47410955	      0.95193575	      0.18903868	     17.53434429	      2.35252614	     -3.85357227	      0.00000000	     -2.54933214	    -10.08521854	      0.00000000	    -11.68253367	     -2.85710788	     -6.56165285	      0.00000000	     16.04277177	     13.42531144	      0.00000000	     -3.96211065	      5.90171928	     -7.39375797	      4.04831060	     -4.38881212	      5.34306466	     11.14993183	     64.73911083	      9.00389128	    -12.92180891	      5.22714002	     40.06559735	     59.58323442
